<svg width="551" height="39" viewBox="0 0 551 39" fill="none" xmlns="http://www.w3.org/2000/svg">
<g clip-path="url(#clip0_1_19)">
<path d="M540.375 23.5H539.387L539.038 23.1625C540.263 21.7375 541 19.8875 541 17.875C541 13.3875 537.363 9.75 532.875 9.75C528.388 9.75 524.75 13.3875 524.75 17.875C524.75 22.3625 528.388 26 532.875 26C534.887 26 536.737 25.2625 538.162 24.0375L538.5 24.3875V25.375L544.75 31.6125L546.612 29.75L540.375 23.5ZM532.875 23.5C529.762 23.5 527.25 20.9875 527.25 17.875C527.25 14.7625 529.762 12.25 532.875 12.25C535.988 12.25 538.5 14.7625 538.5 17.875C538.5 20.9875 535.988 23.5 532.875 23.5Z" fill="black"/>
</g>
<path d="M9.024 15.656C10.192 15.656 11.232 15.928 12.144 16.472C13.056 17.016 13.768 17.8 14.28 18.824C14.808 19.848 15.072 21.048 15.072 22.424C15.072 23.8 14.808 25 14.28 26.024C13.768 27.032 13.056 27.808 12.144 28.352C11.232 28.896 10.192 29.168 9.024 29.168C7.744 29.168 6.656 28.848 5.76 28.208C4.88 27.552 4.272 26.696 3.936 25.64V29H1.752V11.24H3.936V19.184C4.272 18.128 4.88 17.28 5.76 16.64C6.656 15.984 7.744 15.656 9.024 15.656ZM8.4 17.6C7.552 17.6 6.784 17.8 6.096 18.2C5.408 18.584 4.872 19.144 4.488 19.88C4.104 20.616 3.912 21.464 3.912 22.424C3.912 23.384 4.104 24.232 4.488 24.968C4.872 25.688 5.408 26.248 6.096 26.648C6.784 27.048 7.552 27.248 8.4 27.248C9.76 27.248 10.84 26.824 11.64 25.976C12.456 25.112 12.864 23.928 12.864 22.424C12.864 20.92 12.456 19.744 11.64 18.896C10.84 18.032 9.76 17.6 8.4 17.6ZM20.1079 11.24V29H17.9239V11.24H20.1079ZM29.5952 15.656C30.8592 15.656 31.9872 15.928 32.9792 16.472C33.9872 17.016 34.7712 17.8 35.3312 18.824C35.9072 19.848 36.1952 21.048 36.1952 22.424C36.1952 23.8 35.9072 25 35.3312 26.024C34.7712 27.032 33.9872 27.808 32.9792 28.352C31.9872 28.896 30.8592 29.168 29.5952 29.168C28.3312 29.168 27.1952 28.896 26.1872 28.352C25.1952 27.808 24.4112 27.032 23.8352 26.024C23.2592 25 22.9712 23.8 22.9712 22.424C22.9712 21.048 23.2592 19.848 23.8352 18.824C24.4112 17.8 25.1952 17.016 26.1872 16.472C27.1952 15.928 28.3312 15.656 29.5952 15.656ZM29.5952 17.576C28.8112 17.576 28.0832 17.752 27.4112 18.104C26.7552 18.456 26.2192 19 25.8032 19.736C25.4032 20.456 25.2032 21.352 25.2032 22.424C25.2032 23.48 25.4032 24.376 25.8032 25.112C26.2192 25.832 26.7552 26.368 27.4112 26.72C28.0832 27.072 28.8112 27.248 29.5952 27.248C30.3792 27.248 31.0992 27.072 31.7552 26.72C32.4272 26.368 32.9632 25.832 33.3632 25.112C33.7792 24.376 33.9872 23.48 33.9872 22.424C33.9872 21.352 33.7792 20.456 33.3632 19.736C32.9632 19 32.4272 18.456 31.7552 18.104C31.0992 17.752 30.3792 17.576 29.5952 17.576ZM44.4411 15.656C45.7211 15.656 46.8011 15.976 47.6811 16.616C48.5771 17.256 49.2011 18.112 49.5531 19.184V15.824H51.7371V29.216C51.7371 30.432 51.4811 31.512 50.9691 32.456C50.4571 33.4 49.7371 34.136 48.8091 34.664C47.8811 35.192 46.8011 35.456 45.5691 35.456C43.7931 35.456 42.3451 35.024 41.2251 34.16C40.1051 33.312 39.3931 32.16 39.0891 30.704H41.2491C41.5051 31.584 41.9851 32.272 42.6891 32.768C43.4091 33.28 44.3291 33.536 45.4491 33.536C46.6331 33.536 47.6091 33.152 48.3771 32.384C49.1611 31.632 49.5531 30.576 49.5531 29.216V25.64C49.2011 26.712 48.5771 27.568 47.6811 28.208C46.8011 28.848 45.7211 29.168 44.4411 29.168C43.2731 29.168 42.2331 28.896 41.3211 28.352C40.4091 27.808 39.6891 27.032 39.1611 26.024C38.6491 25 38.3931 23.8 38.3931 22.424C38.3931 21.048 38.6491 19.848 39.1611 18.824C39.6891 17.8 40.4091 17.016 41.3211 16.472C42.2331 15.928 43.2731 15.656 44.4411 15.656ZM45.0651 17.6C43.7211 17.6 42.6411 18.032 41.8251 18.896C41.0251 19.744 40.6251 20.92 40.6251 22.424C40.6251 23.928 41.0251 25.112 41.8251 25.976C42.6411 26.824 43.7211 27.248 45.0651 27.248C45.9291 27.248 46.6971 27.048 47.3691 26.648C48.0571 26.248 48.5931 25.688 48.9771 24.968C49.3611 24.232 49.5531 23.384 49.5531 22.424C49.5531 21.464 49.3611 20.616 48.9771 19.88C48.5931 19.144 48.0571 18.584 47.3691 18.2C46.6971 17.8 45.9291 17.6 45.0651 17.6Z" fill="#021718"/>
<path d="M161.584 15.656C163.264 15.656 164.656 16.104 165.76 17C166.864 17.896 167.544 19.096 167.8 20.6H165.496C165.336 19.656 164.896 18.92 164.176 18.392C163.472 17.848 162.592 17.576 161.536 17.576C160.768 17.576 160.064 17.752 159.424 18.104C158.8 18.456 158.296 19 157.912 19.736C157.528 20.456 157.336 21.352 157.336 22.424C157.336 23.496 157.528 24.4 157.912 25.136C158.296 25.856 158.8 26.392 159.424 26.744C160.064 27.096 160.768 27.272 161.536 27.272C162.592 27.272 163.472 27 164.176 26.456C164.896 25.912 165.336 25.168 165.496 24.224H167.8C167.544 25.744 166.864 26.952 165.76 27.848C164.656 28.728 163.264 29.168 161.584 29.168C160.32 29.168 159.2 28.896 158.224 28.352C157.248 27.808 156.48 27.032 155.92 26.024C155.376 25 155.104 23.8 155.104 22.424C155.104 21.048 155.376 19.848 155.92 18.824C156.48 17.8 157.248 17.016 158.224 16.472C159.2 15.928 160.32 15.656 161.584 15.656ZM176.634 15.656C177.898 15.656 179.026 15.928 180.018 16.472C181.026 17.016 181.81 17.8 182.37 18.824C182.946 19.848 183.234 21.048 183.234 22.424C183.234 23.8 182.946 25 182.37 26.024C181.81 27.032 181.026 27.808 180.018 28.352C179.026 28.896 177.898 29.168 176.634 29.168C175.37 29.168 174.234 28.896 173.226 28.352C172.234 27.808 171.45 27.032 170.874 26.024C170.298 25 170.01 23.8 170.01 22.424C170.01 21.048 170.298 19.848 170.874 18.824C171.45 17.8 172.234 17.016 173.226 16.472C174.234 15.928 175.37 15.656 176.634 15.656ZM176.634 17.576C175.85 17.576 175.122 17.752 174.45 18.104C173.794 18.456 173.258 19 172.842 19.736C172.442 20.456 172.242 21.352 172.242 22.424C172.242 23.48 172.442 24.376 172.842 25.112C173.258 25.832 173.794 26.368 174.45 26.72C175.122 27.072 175.85 27.248 176.634 27.248C177.418 27.248 178.138 27.072 178.794 26.72C179.466 26.368 180.002 25.832 180.402 25.112C180.818 24.376 181.026 23.48 181.026 22.424C181.026 21.352 180.818 20.456 180.402 19.736C180.002 19 179.466 18.456 178.794 18.104C178.138 17.752 177.418 17.576 176.634 17.576ZM193.016 15.608C194.552 15.608 195.792 16.104 196.736 17.096C197.68 18.072 198.152 19.488 198.152 21.344V29H195.968V21.536C195.968 20.224 195.632 19.216 194.96 18.512C194.288 17.808 193.376 17.456 192.224 17.456C191.024 17.456 190.064 17.848 189.344 18.632C188.624 19.4 188.264 20.528 188.264 22.016V29H186.08V15.824H188.264V18.944C188.6 17.872 189.192 17.048 190.04 16.472C190.904 15.896 191.896 15.608 193.016 15.608ZM207.79 27.08V29H206.158C204.814 29 203.806 28.68 203.134 28.04C202.478 27.4 202.15 26.328 202.15 24.824V17.72H200.182V15.824H202.15V12.536H204.358V15.824H207.766V17.72H204.358V24.872C204.358 25.72 204.51 26.304 204.814 26.624C205.134 26.928 205.678 27.08 206.446 27.08H207.79ZM215.855 15.656C217.135 15.656 218.215 15.976 219.095 16.616C219.991 17.256 220.615 18.112 220.967 19.184V15.824H223.151V29H220.967V25.64C220.615 26.712 219.991 27.568 219.095 28.208C218.215 28.848 217.135 29.168 215.855 29.168C214.687 29.168 213.647 28.896 212.735 28.352C211.823 27.808 211.103 27.032 210.575 26.024C210.063 25 209.807 23.8 209.807 22.424C209.807 21.048 210.063 19.848 210.575 18.824C211.103 17.8 211.823 17.016 212.735 16.472C213.647 15.928 214.687 15.656 215.855 15.656ZM216.479 17.6C215.135 17.6 214.055 18.032 213.239 18.896C212.439 19.744 212.039 20.92 212.039 22.424C212.039 23.928 212.439 25.112 213.239 25.976C214.055 26.824 215.135 27.248 216.479 27.248C217.343 27.248 218.111 27.048 218.783 26.648C219.471 26.248 220.007 25.688 220.391 24.968C220.775 24.232 220.967 23.384 220.967 22.424C220.967 21.464 220.775 20.616 220.391 19.88C220.007 19.144 219.471 18.584 218.783 18.2C218.111 17.8 217.343 17.6 216.479 17.6ZM232.459 15.656C234.139 15.656 235.531 16.104 236.635 17C237.739 17.896 238.419 19.096 238.675 20.6H236.371C236.211 19.656 235.771 18.92 235.051 18.392C234.347 17.848 233.467 17.576 232.411 17.576C231.643 17.576 230.939 17.752 230.299 18.104C229.675 18.456 229.171 19 228.787 19.736C228.403 20.456 228.211 21.352 228.211 22.424C228.211 23.496 228.403 24.4 228.787 25.136C229.171 25.856 229.675 26.392 230.299 26.744C230.939 27.096 231.643 27.272 232.411 27.272C233.467 27.272 234.347 27 235.051 26.456C235.771 25.912 236.211 25.168 236.371 24.224H238.675C238.419 25.744 237.739 26.952 236.635 27.848C235.531 28.728 234.139 29.168 232.459 29.168C231.195 29.168 230.075 28.896 229.099 28.352C228.123 27.808 227.355 27.032 226.795 26.024C226.251 25 225.979 23.8 225.979 22.424C225.979 21.048 226.251 19.848 226.795 18.824C227.355 17.8 228.123 17.016 229.099 16.472C230.075 15.928 231.195 15.656 232.459 15.656ZM247.821 27.08V29H246.189C244.845 29 243.837 28.68 243.165 28.04C242.509 27.4 242.181 26.328 242.181 24.824V17.72H240.213V15.824H242.181V12.536H244.389V15.824H247.797V17.72H244.389V24.872C244.389 25.72 244.541 26.304 244.845 26.624C245.165 26.928 245.709 27.08 246.477 27.08H247.821Z" fill="#021718"/>
<path d="M356.152 15.656C357.432 15.656 358.512 15.976 359.392 16.616C360.288 17.256 360.912 18.112 361.264 19.184V15.824H363.448V29H361.264V25.64C360.912 26.712 360.288 27.568 359.392 28.208C358.512 28.848 357.432 29.168 356.152 29.168C354.984 29.168 353.944 28.896 353.032 28.352C352.12 27.808 351.4 27.032 350.872 26.024C350.36 25 350.104 23.8 350.104 22.424C350.104 21.048 350.36 19.848 350.872 18.824C351.4 17.8 352.12 17.016 353.032 16.472C353.944 15.928 354.984 15.656 356.152 15.656ZM356.776 17.6C355.432 17.6 354.352 18.032 353.536 18.896C352.736 19.744 352.336 20.92 352.336 22.424C352.336 23.928 352.736 25.112 353.536 25.976C354.352 26.824 355.432 27.248 356.776 27.248C357.64 27.248 358.408 27.048 359.08 26.648C359.768 26.248 360.304 25.688 360.688 24.968C361.072 24.232 361.264 23.384 361.264 22.424C361.264 21.464 361.072 20.616 360.688 19.88C360.304 19.144 359.768 18.584 359.08 18.2C358.408 17.8 357.64 17.6 356.776 17.6ZM374.196 15.656C375.364 15.656 376.404 15.928 377.316 16.472C378.228 17.016 378.94 17.8 379.452 18.824C379.98 19.848 380.244 21.048 380.244 22.424C380.244 23.8 379.98 25 379.452 26.024C378.94 27.032 378.228 27.808 377.316 28.352C376.404 28.896 375.364 29.168 374.196 29.168C372.916 29.168 371.828 28.848 370.932 28.208C370.052 27.552 369.444 26.696 369.108 25.64V29H366.924V11.24H369.108V19.184C369.444 18.128 370.052 17.28 370.932 16.64C371.828 15.984 372.916 15.656 374.196 15.656ZM373.572 17.6C372.724 17.6 371.956 17.8 371.268 18.2C370.58 18.584 370.044 19.144 369.66 19.88C369.276 20.616 369.084 21.464 369.084 22.424C369.084 23.384 369.276 24.232 369.66 24.968C370.044 25.688 370.58 26.248 371.268 26.648C371.956 27.048 372.724 27.248 373.572 27.248C374.932 27.248 376.012 26.824 376.812 25.976C377.628 25.112 378.036 23.928 378.036 22.424C378.036 20.92 377.628 19.744 376.812 18.896C376.012 18.032 374.932 17.6 373.572 17.6ZM389.072 15.656C390.336 15.656 391.464 15.928 392.456 16.472C393.464 17.016 394.248 17.8 394.808 18.824C395.384 19.848 395.672 21.048 395.672 22.424C395.672 23.8 395.384 25 394.808 26.024C394.248 27.032 393.464 27.808 392.456 28.352C391.464 28.896 390.336 29.168 389.072 29.168C387.808 29.168 386.672 28.896 385.664 28.352C384.672 27.808 383.888 27.032 383.312 26.024C382.736 25 382.448 23.8 382.448 22.424C382.448 21.048 382.736 19.848 383.312 18.824C383.888 17.8 384.672 17.016 385.664 16.472C386.672 15.928 387.808 15.656 389.072 15.656ZM389.072 17.576C388.288 17.576 387.56 17.752 386.888 18.104C386.232 18.456 385.696 19 385.28 19.736C384.88 20.456 384.68 21.352 384.68 22.424C384.68 23.48 384.88 24.376 385.28 25.112C385.696 25.832 386.232 26.368 386.888 26.72C387.56 27.072 388.288 27.248 389.072 27.248C389.856 27.248 390.576 27.072 391.232 26.72C391.904 26.368 392.44 25.832 392.84 25.112C393.256 24.376 393.464 23.48 393.464 22.424C393.464 21.352 393.256 20.456 392.84 19.736C392.44 19 391.904 18.456 391.232 18.104C390.576 17.752 389.856 17.576 389.072 17.576ZM410.23 15.824V29H408.046V25.904C407.71 26.976 407.11 27.8 406.246 28.376C405.398 28.936 404.406 29.216 403.27 29.216C401.75 29.216 400.518 28.728 399.574 27.752C398.63 26.76 398.158 25.344 398.158 23.504V15.824H400.342V23.288C400.342 24.6 400.678 25.616 401.35 26.336C402.022 27.04 402.934 27.392 404.086 27.392C405.286 27.392 406.246 27.008 406.966 26.24C407.686 25.456 408.046 24.32 408.046 22.832V15.824H410.23ZM420.017 27.08V29H418.385C417.041 29 416.033 28.68 415.361 28.04C414.705 27.4 414.377 26.328 414.377 24.824V17.72H412.409V15.824H414.377V12.536H416.585V15.824H419.993V17.72H416.585V24.872C416.585 25.72 416.737 26.304 417.041 26.624C417.361 26.928 417.905 27.08 418.673 27.08H420.017Z" fill="#021718"/>
<defs>
<clipPath id="clip0_1_19">
<rect width="30" height="30" fill="white" transform="translate(521 6)"/>
</clipPath>
</defs>
</svg>
